<?xml version="1.0" encoding="utf-8"?>
<!-- Generator: Adobe Illustrator 23.0.1, SVG Export Plug-In . SVG Version: 6.00 Build 0)  -->
<svg version="1.1" id="Calque_1" xmlns="http://www.w3.org/2000/svg" xmlns:xlink="http://www.w3.org/1999/xlink" x="0px" y="0px"
	 viewBox="0 0 291.1 57.7" style="enable-background:new 0 0 291.1 57.7;" xml:space="preserve">
<style type="text/css">
	.st0{fill:#32434B;}
</style>
<g>
	<path class="st0" d="M129.3,47.8h1.2c-0.3-0.1-0.3-0.3-0.3-0.6v-2.7h1.8c1.6,0,2.5-0.9,2.5-2.2s-0.9-2.2-2.5-2.2h-2.7
		c0.3,0.1,0.3,0.3,0.3,0.6v6.5C129.6,47.5,129.6,47.7,129.3,47.8 M132,40.6c1.2,0,1.9,0.6,1.9,1.7c0,1.1-0.6,1.7-1.9,1.7h-1.7v-3.4
		H132z M143.5,47.2l0.8-2.2h3.2l0.8,2.2c0,0.1,0.1,0.2,0.1,0.3s-0.1,0.2-0.2,0.3h1.3c-0.3-0.1-0.4-0.2-0.5-0.5l-2.7-7.2h-1
		c0.2,0.1,0.3,0.2,0.3,0.3s0,0.2-0.1,0.3l-2.5,6.5c-0.1,0.2-0.2,0.4-0.4,0.5h1.1c-0.2-0.1-0.2-0.2-0.2-0.3
		C143.5,47.4,143.5,47.3,143.5,47.2 M144.5,44.6l1.4-3.9l1.4,3.9H144.5z M161.5,40.2h-2.7c0.3,0.1,0.3,0.3,0.3,0.6v6.5
		c0,0.3,0,0.5-0.3,0.6h1.2c-0.3-0.1-0.3-0.3-0.3-0.6v-3h1.5l2.3,3.6h1c-0.2-0.1-0.5-0.3-0.6-0.5l-2-3c1.3-0.1,2.1-0.9,2.1-2
		C164,41,163.1,40.2,161.5,40.2 M159.8,43.8v-3.2h1.7c1.2,0,1.8,0.7,1.8,1.6c0,1-0.7,1.6-1.8,1.6C161.5,43.8,159.8,43.8,159.8,43.8z
		 M173.9,47.8h1.2c-0.3-0.1-0.3-0.3-0.3-0.6v-6.5c0-0.3,0-0.5,0.3-0.6h-1.2c0.3,0.1,0.3,0.3,0.3,0.6v6.5
		C174.2,47.5,174.1,47.7,173.9,47.8 M184.9,46.2v1.5c0-0.1,0.1-0.2,0.2-0.2c0.2,0,0.8,0.5,1.9,0.5c1.5,0,2.5-0.9,2.5-2.1
		c0-0.9-0.5-1.5-1.6-2c-1.6-0.6-2.4-0.8-2.4-1.8c0-0.9,0.7-1.6,1.8-1.6c0.9,0,1.5,0.4,1.7,1.2v-1.5c0,0.2-0.1,0.2-0.2,0.2
		c-0.2,0-0.7-0.3-1.5-0.3c-1.4,0-2.4,0.9-2.4,2s0.7,1.6,2.1,2.1c1.1,0.4,1.9,0.8,1.9,1.8c0,0.9-0.8,1.5-1.9,1.5
		C186,47.5,185.2,47,184.9,46.2"/>
	<path class="st0" d="M129.3,47.8h1.2c-0.3-0.1-0.3-0.3-0.3-0.6v-2.7h1.8c1.6,0,2.5-0.9,2.5-2.2s-0.9-2.2-2.5-2.2h-2.7
		c0.3,0.1,0.3,0.3,0.3,0.6v6.5C129.6,47.5,129.6,47.7,129.3,47.8 M132,40.6c1.2,0,1.9,0.6,1.9,1.7c0,1.1-0.6,1.7-1.9,1.7h-1.7v-3.4
		H132z M143.5,47.2l0.8-2.2h3.2l0.8,2.2c0,0.1,0.1,0.2,0.1,0.3s-0.1,0.2-0.2,0.3h1.3c-0.3-0.1-0.4-0.2-0.5-0.5l-2.7-7.2h-1
		c0.2,0.1,0.3,0.2,0.3,0.3s0,0.2-0.1,0.3l-2.5,6.5c-0.1,0.2-0.2,0.4-0.4,0.5h1.1c-0.2-0.1-0.2-0.2-0.2-0.3
		C143.5,47.4,143.5,47.3,143.5,47.2 M144.5,44.6l1.4-3.9l1.4,3.9H144.5z M161.5,40.2h-2.7c0.3,0.1,0.3,0.3,0.3,0.6v6.5
		c0,0.3,0,0.5-0.3,0.6h1.2c-0.3-0.1-0.3-0.3-0.3-0.6v-3h1.5l2.3,3.6h1c-0.2-0.1-0.5-0.3-0.6-0.5l-2-3c1.3-0.1,2.1-0.9,2.1-2
		C164,41,163.1,40.2,161.5,40.2 M159.8,43.8v-3.2h1.7c1.2,0,1.8,0.7,1.8,1.6c0,1-0.7,1.6-1.8,1.6C161.5,43.8,159.8,43.8,159.8,43.8z
		 M173.9,47.8h1.2c-0.3-0.1-0.3-0.3-0.3-0.6v-6.5c0-0.3,0-0.5,0.3-0.6h-1.2c0.3,0.1,0.3,0.3,0.3,0.6v6.5
		C174.2,47.5,174.1,47.7,173.9,47.8 M184.9,46.2v1.5c0-0.1,0.1-0.2,0.2-0.2c0.2,0,0.8,0.5,1.9,0.5c1.5,0,2.5-0.9,2.5-2.1
		c0-0.9-0.5-1.5-1.6-2c-1.6-0.6-2.4-0.8-2.4-1.8c0-0.9,0.7-1.6,1.8-1.6c0.9,0,1.5,0.4,1.7,1.2v-1.5c0,0.2-0.1,0.2-0.2,0.2
		c-0.2,0-0.7-0.3-1.5-0.3c-1.4,0-2.4,0.9-2.4,2s0.7,1.6,2.1,2.1c1.1,0.4,1.9,0.8,1.9,1.8c0,0.9-0.8,1.5-1.9,1.5
		C186,47.5,185.2,47,184.9,46.2"/>
	<path class="st0" d="M32.1,32.4V20.8l5.7,12.8h0.9l5.8-13v11.7c0,0.6-0.1,1-0.6,1.3H47c-0.5-0.3-0.6-0.7-0.6-1.3V19.8
		c0-0.6,0.1-1,0.6-1.3h-3.1l-5.3,12l-5.3-12h-3.2c0.5,0.3,0.6,0.7,0.6,1.3v12.6c0,0.6-0.1,1-0.6,1.3h2.6
		C32.2,33.4,32.1,33,32.1,32.4 M58.8,29.4v-6.2c0-0.5,0.1-0.7,0.5-1h-2c0.4,0.2,0.5,0.5,0.5,1v5.9c0,1.1,0,1.9-0.3,2.3
		c-0.4,0.8-1.3,1.2-2.6,1.2c-1.4,0-2.2-0.4-2.6-1.4c-0.2-0.4-0.2-1-0.2-2v-6.1c0-0.5,0.1-0.7,0.4-1h-2.4c0.4,0.2,0.4,0.5,0.4,1V29
		c0,1.5,0,2.5,0.7,3.4c0.7,0.9,1.8,1.3,3.4,1.3c1.8,0,3-0.5,3.7-1.6C58.7,31.6,58.8,30.7,58.8,29.4 M62.1,33.5
		c0.1-0.2,0.2-0.3,0.4-0.3c0.4,0,1.4,0.7,3,0.7c2.3,0,3.8-1.4,3.8-3.3c0-1.5-0.9-2.3-2.8-3l-1.2-0.5c-1.3-0.5-1.8-0.9-1.8-1.9
		c0-1.1,0.9-1.9,2.2-1.9c1.5,0,2.7,0.8,2.9,1.8v-2.7c-0.1,0.2-0.2,0.3-0.4,0.3c-0.4,0-1.2-0.6-2.5-0.6c-2.2,0-3.7,1.4-3.7,3.2
		c0,1.7,1,2.4,2.9,3.1l1,0.4c1.2,0.5,1.9,0.9,1.9,1.9c0,1.2-0.9,1.9-2.4,1.9s-2.7-0.7-3.3-1.9C62.1,30.7,62.1,33.5,62.1,33.5z
		 M74.5,21.3H75l2.3-1.4c0.4-0.3,0.6-0.4,0.6-0.7c0-0.3-0.3-0.6-0.6-0.6c-0.2,0-0.5,0.2-0.8,0.5L74.5,21.3z M72.1,33.7h7.3v-1.6
		c-0.2,0.4-0.4,0.5-0.9,0.5h-4.4v-4.3h3.6c0.4,0,0.7,0.1,0.9,0.5v-2c-0.2,0.4-0.5,0.5-0.9,0.5h-3.6v-3.8h4.1c0.5,0,0.8,0.1,0.9,0.5
		v-1.6h-7c0.4,0.2,0.4,0.5,0.4,1v9.4C72.6,33.2,72.5,33.4,72.1,33.7 M82.4,33.7h7.3v-1.6c-0.2,0.4-0.4,0.5-0.9,0.5h-4.4v-4.3H88
		c0.4,0,0.7,0.1,0.9,0.5v-2c-0.2,0.4-0.5,0.5-0.9,0.5h-3.6v-3.8h4.1c0.5,0,0.8,0.1,0.9,0.5v-1.6h-7c0.4,0.2,0.4,0.5,0.4,1v9.4
		C82.8,33.2,82.7,33.4,82.4,33.7 M103.7,32.4V20.8l5.7,12.8h0.9l5.7-13v11.7c0,0.6-0.1,1-0.6,1.3h3.2c-0.5-0.3-0.6-0.7-0.6-1.3V19.8
		c0-0.6,0.1-1,0.6-1.3h-3.1l-5.3,12l-5.3-12h-3.2c0.5,0.3,0.6,0.7,0.6,1.3v12.6c0,0.6-0.1,1-0.6,1.3h2.6
		C103.8,33.4,103.7,33,103.7,32.4 M120.4,33.7h2.3c-0.3-0.1-0.4-0.3-0.4-0.5c0-0.1,0-0.2,0.1-0.4l1.1-2.9h4.5l1.1,3.1
		c0,0.1,0.1,0.2,0.1,0.3c0,0.2-0.1,0.4-0.4,0.5h2.6c-0.4-0.1-0.6-0.3-0.7-0.7l-4-10.6h-2.1c0.2,0.1,0.4,0.3,0.4,0.5
		c0,0.1,0,0.4-0.2,0.7l-3.5,9.3C121,33.3,120.8,33.6,120.4,33.7 M123.8,28.8l1.8-4.9l1.9,4.9H123.8z M135,32.7v-3.9h2l3,4.9h2.1
		c-0.3-0.1-0.5-0.3-0.7-0.6l-2.9-4.6c1.8-0.3,2.8-1.5,2.8-3c0-2-1.5-3.2-4.2-3.2H133c0.4,0.2,0.4,0.5,0.4,1v9.4c0,0.5-0.1,0.7-0.4,1
		h2.4C135,33.4,135,33.2,135,32.7 M135,23.4h1.8c1.9,0,2.9,0.7,2.9,2.2c0,1.4-1,2.1-2.9,2.1H135V23.4z M145.6,32.7v-8.6l4.3,9.6h0.6
		l4.3-9.7v8.8c0,0.5-0.1,0.7-0.5,1h2.4c-0.4-0.2-0.4-0.5-0.4-1v-9.4c0-0.5,0.1-0.7,0.4-1h-2.3l-4,9l-4-9H144c0.4,0.2,0.4,0.5,0.4,1
		v9.4c0,0.5-0.1,0.7-0.4,1h2C145.7,33.4,145.6,33.2,145.6,32.7 M165.2,33.9c1.5,0,2.7-0.5,3.8-1.5c1.1-1.1,1.7-2.6,1.7-4.4
		c0-1.7-0.6-3.3-1.7-4.4c-1-1-2.3-1.5-3.7-1.5c-1.5,0-2.8,0.5-3.8,1.5c-1.1,1.1-1.7,2.6-1.7,4.4c0,1.7,0.6,3.2,1.7,4.4
		C162.4,33.4,163.7,33.9,165.2,33.9 M165.2,32.7c-1.1,0-2-0.4-2.8-1.3c-0.8-0.9-1.2-2-1.2-3.5c0-1.4,0.4-2.6,1.2-3.5
		c0.7-0.8,1.7-1.2,2.7-1.2c1.1,0,2,0.5,2.7,1.2c0.8,0.9,1.2,2,1.2,3.5c0,1.4-0.4,2.6-1.2,3.5C167.2,32.3,166.2,32.7,165.2,32.7
		 M177.3,32.7v-9.3h2.4c0.5,0,0.8,0.1,0.9,0.5v-1.6h-8.3v1.6c0.2-0.4,0.4-0.5,0.9-0.5h2.4v9.3c0,0.5-0.1,0.7-0.5,1h2.4
		C177.3,33.4,177.3,33.2,177.3,32.7 M187.5,32.7v-9.3h2.4c0.5,0,0.8,0.1,0.9,0.5v-1.6h-8.3v1.6c0.2-0.4,0.4-0.5,0.9-0.5h2.4v9.3
		c0,0.5-0.1,0.7-0.5,1h2.4C187.6,33.4,187.5,33.2,187.5,32.7 M190.5,33.7h2.3c-0.3-0.1-0.4-0.3-0.4-0.5c0-0.1,0-0.2,0.1-0.4l1.1-2.9
		h4.5l1.1,3.1c0,0.1,0.1,0.2,0.1,0.3c0,0.2-0.1,0.4-0.4,0.5h2.6c-0.4-0.1-0.6-0.3-0.7-0.7l-4-10.6h-2.1c0.2,0.1,0.4,0.3,0.4,0.5
		c0,0.1,0,0.4-0.2,0.7l-3.5,9.3C191.1,33.3,190.9,33.6,190.5,33.7 M193.9,28.8l1.8-4.9l1.9,4.9H193.9z M204.6,32.7v-8.3l6.4,9.3h1.3
		V23.3c0-0.5,0.1-0.7,0.5-1h-2c0.4,0.2,0.5,0.5,0.5,1v8.1l-6.3-9h-1.9c0.4,0.2,0.4,0.5,0.4,1v9.4c0,0.5-0.1,0.7-0.4,1h2
		C204.7,33.4,204.6,33.2,204.6,32.7 M227,32.4V20.8l5.7,12.8h0.9l5.7-13v11.7c0,0.6-0.1,1-0.6,1.3h3.2c-0.5-0.3-0.6-0.7-0.6-1.3
		V19.8c0-0.6,0.1-1,0.6-1.3h-3.1l-5.3,12l-5.3-12H225c0.5,0.3,0.6,0.7,0.6,1.3v12.6c0,0.6-0.1,1-0.6,1.3h2.6
		C227.1,33.4,227,33,227,32.4 M250.5,33.9c1.5,0,2.8-0.5,3.8-1.5c1.1-1.1,1.7-2.6,1.7-4.4c0-1.7-0.6-3.3-1.7-4.4
		c-1-1-2.3-1.5-3.7-1.5c-1.5,0-2.8,0.5-3.8,1.5c-1.1,1.1-1.7,2.6-1.7,4.4c0,1.7,0.6,3.2,1.7,4.4C247.8,33.4,249,33.9,250.5,33.9
		 M250.5,32.7c-1.1,0-2-0.4-2.8-1.3c-0.8-0.9-1.2-2-1.2-3.5c0-1.4,0.4-2.6,1.2-3.5c0.7-0.8,1.7-1.2,2.7-1.2c1.1,0,2,0.5,2.7,1.2
		c0.8,0.9,1.2,2,1.2,3.5c0,1.4-0.4,2.6-1.2,3.5C252.5,32.3,251.6,32.7,250.5,32.7 M260.5,32.7v-8.3l6.4,9.3h1.3V23.3
		c0-0.5,0.1-0.7,0.5-1h-2c0.4,0.2,0.5,0.5,0.5,1v8.1l-6.3-9H259c0.4,0.2,0.4,0.5,0.4,1v9.4c0,0.5-0.1,0.7-0.4,1h2
		C260.5,33.4,260.5,33.2,260.5,32.7 M271.8,33.7h7.3v-1.6c-0.2,0.4-0.4,0.5-0.9,0.5h-4.4v-4.3h3.6c0.4,0,0.7,0.1,0.9,0.5v-2
		c-0.2,0.4-0.5,0.5-0.9,0.5h-3.6v-3.8h4.1c0.5,0,0.8,0.1,0.9,0.5v-1.6h-7c0.4,0.2,0.4,0.5,0.4,1v9.4
		C272.2,33.2,272.1,33.4,271.8,33.7 M285.6,32.7v-9.3h2.4c0.5,0,0.8,0.1,0.9,0.5v-1.6h-8.3v1.6c0.2-0.4,0.4-0.5,0.9-0.5h2.4v9.3
		c0,0.5-0.1,0.7-0.5,1h2.4C285.7,33.4,285.6,33.2,285.6,32.7"/>
	<path class="st0" d="M32.1,32.4V20.8l5.7,12.8h0.9l5.8-13v11.7c0,0.6-0.1,1-0.6,1.3H47c-0.5-0.3-0.6-0.7-0.6-1.3V19.8
		c0-0.6,0.1-1,0.6-1.3h-3.1l-5.3,12l-5.3-12h-3.2c0.5,0.3,0.6,0.7,0.6,1.3v12.6c0,0.6-0.1,1-0.6,1.3h2.6
		C32.2,33.4,32.1,33,32.1,32.4 M58.8,29.4v-6.2c0-0.5,0.1-0.7,0.5-1h-2c0.4,0.2,0.5,0.5,0.5,1v5.9c0,1.1,0,1.9-0.3,2.3
		c-0.4,0.8-1.3,1.2-2.6,1.2c-1.4,0-2.2-0.4-2.6-1.4c-0.2-0.4-0.2-1-0.2-2v-6.1c0-0.5,0.1-0.7,0.4-1h-2.4c0.4,0.2,0.4,0.5,0.4,1V29
		c0,1.5,0,2.5,0.7,3.4c0.7,0.9,1.8,1.3,3.4,1.3c1.8,0,3-0.5,3.7-1.6C58.7,31.6,58.8,30.7,58.8,29.4 M62.1,33.5
		c0.1-0.2,0.2-0.3,0.4-0.3c0.4,0,1.4,0.7,3,0.7c2.3,0,3.8-1.4,3.8-3.3c0-1.5-0.9-2.3-2.8-3l-1.2-0.5c-1.3-0.5-1.8-0.9-1.8-1.9
		c0-1.1,0.9-1.9,2.2-1.9c1.5,0,2.7,0.8,2.9,1.8v-2.7c-0.1,0.2-0.2,0.3-0.4,0.3c-0.4,0-1.2-0.6-2.5-0.6c-2.2,0-3.7,1.4-3.7,3.2
		c0,1.7,1,2.4,2.9,3.1l1,0.4c1.2,0.5,1.9,0.9,1.9,1.9c0,1.2-0.9,1.9-2.4,1.9s-2.7-0.7-3.3-1.9C62.1,30.7,62.1,33.5,62.1,33.5z
		 M74.5,21.3H75l2.3-1.4c0.4-0.3,0.6-0.4,0.6-0.7c0-0.3-0.3-0.6-0.6-0.6c-0.2,0-0.5,0.2-0.8,0.5L74.5,21.3z M72.1,33.7h7.3v-1.6
		c-0.2,0.4-0.4,0.5-0.9,0.5h-4.4v-4.3h3.6c0.4,0,0.7,0.1,0.9,0.5v-2c-0.2,0.4-0.5,0.5-0.9,0.5h-3.6v-3.8h4.1c0.5,0,0.8,0.1,0.9,0.5
		v-1.6h-7c0.4,0.2,0.4,0.5,0.4,1v9.4C72.6,33.2,72.5,33.4,72.1,33.7 M82.4,33.7h7.3v-1.6c-0.2,0.4-0.4,0.5-0.9,0.5h-4.4v-4.3H88
		c0.4,0,0.7,0.1,0.9,0.5v-2c-0.2,0.4-0.5,0.5-0.9,0.5h-3.6v-3.8h4.1c0.5,0,0.8,0.1,0.9,0.5v-1.6h-7c0.4,0.2,0.4,0.5,0.4,1v9.4
		C82.8,33.2,82.7,33.4,82.4,33.7 M103.7,32.4V20.8l5.7,12.8h0.9l5.7-13v11.7c0,0.6-0.1,1-0.6,1.3h3.2c-0.5-0.3-0.6-0.7-0.6-1.3V19.8
		c0-0.6,0.1-1,0.6-1.3h-3.1l-5.3,12l-5.3-12h-3.2c0.5,0.3,0.6,0.7,0.6,1.3v12.6c0,0.6-0.1,1-0.6,1.3h2.6
		C103.8,33.4,103.7,33,103.7,32.4 M120.4,33.7h2.3c-0.3-0.1-0.4-0.3-0.4-0.5c0-0.1,0-0.2,0.1-0.4l1.1-2.9h4.5l1.1,3.1
		c0,0.1,0.1,0.2,0.1,0.3c0,0.2-0.1,0.4-0.4,0.5h2.6c-0.4-0.1-0.6-0.3-0.7-0.7l-4-10.6h-2.1c0.2,0.1,0.4,0.3,0.4,0.5
		c0,0.1,0,0.4-0.2,0.7l-3.5,9.3C121,33.3,120.8,33.6,120.4,33.7 M123.8,28.8l1.8-4.9l1.9,4.9H123.8z M135,32.7v-3.9h2l3,4.9h2.1
		c-0.3-0.1-0.5-0.3-0.7-0.6l-2.9-4.6c1.8-0.3,2.8-1.5,2.8-3c0-2-1.5-3.2-4.2-3.2H133c0.4,0.2,0.4,0.5,0.4,1v9.4c0,0.5-0.1,0.7-0.4,1
		h2.4C135,33.4,135,33.2,135,32.7 M135,23.4h1.8c1.9,0,2.9,0.7,2.9,2.2c0,1.4-1,2.1-2.9,2.1H135V23.4z M145.6,32.7v-8.6l4.3,9.6h0.6
		l4.3-9.7v8.8c0,0.5-0.1,0.7-0.5,1h2.4c-0.4-0.2-0.4-0.5-0.4-1v-9.4c0-0.5,0.1-0.7,0.4-1h-2.3l-4,9l-4-9H144c0.4,0.2,0.4,0.5,0.4,1
		v9.4c0,0.5-0.1,0.7-0.4,1h2C145.7,33.4,145.6,33.2,145.6,32.7 M165.2,33.9c1.5,0,2.7-0.5,3.8-1.5c1.1-1.1,1.7-2.6,1.7-4.4
		c0-1.7-0.6-3.3-1.7-4.4c-1-1-2.3-1.5-3.7-1.5c-1.5,0-2.8,0.5-3.8,1.5c-1.1,1.1-1.7,2.6-1.7,4.4c0,1.7,0.6,3.2,1.7,4.4
		C162.4,33.4,163.7,33.9,165.2,33.9 M165.2,32.7c-1.1,0-2-0.4-2.8-1.3c-0.8-0.9-1.2-2-1.2-3.5c0-1.4,0.4-2.6,1.2-3.5
		c0.7-0.8,1.7-1.2,2.7-1.2c1.1,0,2,0.5,2.7,1.2c0.8,0.9,1.2,2,1.2,3.5c0,1.4-0.4,2.6-1.2,3.5C167.2,32.3,166.2,32.7,165.2,32.7
		 M177.3,32.7v-9.3h2.4c0.5,0,0.8,0.1,0.9,0.5v-1.6h-8.3v1.6c0.2-0.4,0.4-0.5,0.9-0.5h2.4v9.3c0,0.5-0.1,0.7-0.5,1h2.4
		C177.3,33.4,177.3,33.2,177.3,32.7 M187.5,32.7v-9.3h2.4c0.5,0,0.8,0.1,0.9,0.5v-1.6h-8.3v1.6c0.2-0.4,0.4-0.5,0.9-0.5h2.4v9.3
		c0,0.5-0.1,0.7-0.5,1h2.4C187.6,33.4,187.5,33.2,187.5,32.7 M190.5,33.7h2.3c-0.3-0.1-0.4-0.3-0.4-0.5c0-0.1,0-0.2,0.1-0.4l1.1-2.9
		h4.5l1.1,3.1c0,0.1,0.1,0.2,0.1,0.3c0,0.2-0.1,0.4-0.4,0.5h2.6c-0.4-0.1-0.6-0.3-0.7-0.7l-4-10.6h-2.1c0.2,0.1,0.4,0.3,0.4,0.5
		c0,0.1,0,0.4-0.2,0.7l-3.5,9.3C191.1,33.3,190.9,33.6,190.5,33.7 M193.9,28.8l1.8-4.9l1.9,4.9H193.9z M204.6,32.7v-8.3l6.4,9.3h1.3
		V23.3c0-0.5,0.1-0.7,0.5-1h-2c0.4,0.2,0.5,0.5,0.5,1v8.1l-6.3-9h-1.9c0.4,0.2,0.4,0.5,0.4,1v9.4c0,0.5-0.1,0.7-0.4,1h2
		C204.7,33.4,204.6,33.2,204.6,32.7 M227,32.4V20.8l5.7,12.8h0.9l5.7-13v11.7c0,0.6-0.1,1-0.6,1.3h3.2c-0.5-0.3-0.6-0.7-0.6-1.3
		V19.8c0-0.6,0.1-1,0.6-1.3h-3.1l-5.3,12l-5.3-12H225c0.5,0.3,0.6,0.7,0.6,1.3v12.6c0,0.6-0.1,1-0.6,1.3h2.6
		C227.1,33.4,227,33,227,32.4 M250.5,33.9c1.5,0,2.8-0.5,3.8-1.5c1.1-1.1,1.7-2.6,1.7-4.4c0-1.7-0.6-3.3-1.7-4.4
		c-1-1-2.3-1.5-3.7-1.5c-1.5,0-2.8,0.5-3.8,1.5c-1.1,1.1-1.7,2.6-1.7,4.4c0,1.7,0.6,3.2,1.7,4.4C247.8,33.4,249,33.9,250.5,33.9
		 M250.5,32.7c-1.1,0-2-0.4-2.8-1.3c-0.8-0.9-1.2-2-1.2-3.5c0-1.4,0.4-2.6,1.2-3.5c0.7-0.8,1.7-1.2,2.7-1.2c1.1,0,2,0.5,2.7,1.2
		c0.8,0.9,1.2,2,1.2,3.5c0,1.4-0.4,2.6-1.2,3.5C252.5,32.3,251.6,32.7,250.5,32.7 M260.5,32.7v-8.3l6.4,9.3h1.3V23.3
		c0-0.5,0.1-0.7,0.5-1h-2c0.4,0.2,0.5,0.5,0.5,1v8.1l-6.3-9H259c0.4,0.2,0.4,0.5,0.4,1v9.4c0,0.5-0.1,0.7-0.4,1h2
		C260.5,33.4,260.5,33.2,260.5,32.7 M271.8,33.7h7.3v-1.6c-0.2,0.4-0.4,0.5-0.9,0.5h-4.4v-4.3h3.6c0.4,0,0.7,0.1,0.9,0.5v-2
		c-0.2,0.4-0.5,0.5-0.9,0.5h-3.6v-3.8h4.1c0.5,0,0.8,0.1,0.9,0.5v-1.6h-7c0.4,0.2,0.4,0.5,0.4,1v9.4
		C272.2,33.2,272.1,33.4,271.8,33.7 M285.6,32.7v-9.3h2.4c0.5,0,0.8,0.1,0.9,0.5v-1.6h-8.3v1.6c0.2-0.4,0.4-0.5,0.9-0.5h2.4v9.3
		c0,0.5-0.1,0.7-0.5,1h2.4C285.7,33.4,285.6,33.2,285.6,32.7"/>
	<path class="st0" d="M9.8,1.5L9.8,1.5L9.8,1.5L9.8,1.5L9.3,1.6c0,0.1-0.1,0.1-0.1,0.2H9.1c-0.1,0-0.2,0-0.3,0v0.1
		c-0.1,0-0.2,0-0.3,0L8.4,2H8.3L8.2,2.1H8.1v0.1c-0.2,0-0.2,0.1-0.4,0.2v0.1c-0.2,0-0.3,0.2-0.3,0.3C7.2,3,7.2,3,7.1,3.1
		C7,3.1,7,3.2,6.9,3.3v0.2H6.8C6.7,3.6,6.6,3.8,6.6,3.9l0,0V4H6.5v0.1l0,0v0.3H6.4c0,0.1-0.1,0.7,0,0.9l0,0v0.1h0.1
		c0,0.2,0,0.4,0,0.6h0.1v0.4l0.1,0.1v0.2C6.8,7,6.8,7,6.9,7v0.2L7,7.3v0.2l0,0c0.1,0.1,0.1,0.1,0.1,0.2h0.1c0,0.1,0,0.1,0,0.2h0.1
		c0,0.1,0,0,0,0.1c0,0.1,0,0.1,0.1,0.1v0.1l0.4,0.2v0.1c0.1,0,0.2,0.1,0.3,0.1l0,0h0.2l0.1,0.1h0.2l0,0h0.1C8.9,9,9,9,9,9h0.7l0,0
		h0.1l0,0c0.3,0,0.5,0,0.8,0l0,0h0.5l0,0h0.1l0,0h0.6l0.1-0.1h0.3V8.8c0.2,0,0.2,0,0.3-0.1c0.3-0.1,0.5-0.2,0.7-0.5h0.1V8h0.1l0,0
		c0.1-0.1,0-0.1,0.2-0.1c0-0.1,0.1-0.1,0.1-0.2l0,0V7.5l0.1-0.1V7.2l0.1-0.1V6.8L14,6.7V6.3l0,0V6.2h0.1V4.5V3.9L14,3.8V3.6
		l-0.1-0.1V3.4c-0.1,0-0.1-0.1-0.1-0.1V3.2l0,0c-0.1-0.1,0-0.1-0.1-0.1c-0.1-0.2-0.3-0.4-0.5-0.5V2.5c-0.1,0-0.1,0-0.2,0V2.4h-0.1
		l-0.1-0.1c-0.1,0-0.1,0-0.1,0s-0.1,0-0.1-0.1c-0.2,0-0.2,0-0.3-0.1l0,0H12L11.9,2h-0.1l0,0h-0.2l0,0h-0.2l0,0H11l0,0h-0.1l0,0h-0.1
		l0,0c0,0-0.1,0-0.2,0C10.2,1.4,9.9,1.5,9.8,1.5"/>
	<path class="st0" d="M9.8,1.5L9.8,1.5L9.8,1.5L9.8,1.5L9.3,1.6c0,0.1-0.1,0.1-0.1,0.2H9.1c-0.1,0-0.2,0-0.3,0v0.1
		c-0.1,0-0.2,0-0.3,0L8.4,2H8.3L8.2,2.1H8.1v0.1c-0.2,0-0.2,0.1-0.4,0.2v0.1c-0.2,0-0.3,0.2-0.3,0.3C7.2,3,7.2,3,7.1,3.1
		C7,3.1,7,3.2,6.9,3.3v0.2H6.8C6.7,3.6,6.6,3.8,6.6,3.9l0,0V4H6.5v0.1l0,0v0.3H6.4c0,0.1-0.1,0.7,0,0.9l0,0v0.1h0.1
		c0,0.2,0,0.4,0,0.6h0.1v0.4l0.1,0.1v0.2C6.8,7,6.8,7,6.9,7v0.2L7,7.3v0.2l0,0c0.1,0.1,0.1,0.1,0.1,0.2h0.1c0,0.1,0,0.1,0,0.2h0.1
		c0,0.1,0,0,0,0.1c0,0.1,0,0.1,0.1,0.1v0.1l0.4,0.2v0.1c0.1,0,0.2,0.1,0.3,0.1l0,0h0.2l0.1,0.1h0.2l0,0h0.1C8.9,9,9,9,9,9h0.7l0,0
		h0.1l0,0c0.3,0,0.5,0,0.8,0l0,0h0.5l0,0h0.1l0,0h0.6l0.1-0.1h0.3V8.8c0.2,0,0.2,0,0.3-0.1c0.3-0.1,0.5-0.2,0.7-0.5h0.1V8h0.1l0,0
		c0.1-0.1,0-0.1,0.2-0.1c0-0.1,0.1-0.1,0.1-0.2l0,0V7.5l0.1-0.1V7.2l0.1-0.1V6.8L14,6.7V6.3l0,0V6.2h0.1V4.5V3.9L14,3.8V3.6
		l-0.1-0.1V3.4c-0.1,0-0.1-0.1-0.1-0.1V3.2l0,0c-0.1-0.1,0-0.1-0.1-0.1c-0.1-0.2-0.3-0.4-0.5-0.5V2.5c-0.1,0-0.1,0-0.2,0V2.4h-0.1
		l-0.1-0.1c-0.1,0-0.1,0-0.1,0s-0.1,0-0.1-0.1c-0.2,0-0.2,0-0.3-0.1l0,0H12L11.9,2h-0.1l0,0h-0.2l0,0h-0.2l0,0H11l0,0h-0.1l0,0h-0.1
		l0,0c0,0-0.1,0-0.2,0C10.2,1.4,9.9,1.5,9.8,1.5"/>
	<path class="st0" d="M8,18.3V19l0.1,0.1c0,0.1,0,0.1,0,0.2h0.1h0.1c0,0.1,0.1,0.1,0.1,0.2H9c0.2,0.1,0.3,0.1,0.6,0.1v0.1
		c-0.1,0-0.2,0-0.3,0c-0.3,0-0.6,0-0.8,0.1H8.4l0,0H8.3l0,0H7.2l0,0H7.1l0,0H6.4c0,0.2,0,0.6,0,0.9h0.9v0.1h0.3l0,0
		c0.1,0,0.2,0,0.3,0s0.2,0,0.3,0v0.1H7.8l0,0c-0.3,0-0.3,0.1-0.5,0.2c0,0.1,0.1,0.1,0.1,0.2c0.3,0,0.4,0.1,0.7,0.1h0.6l0.1,0.1h0.6
		l0.1,0.1H10c0,0.4,0,0.4,0,0.5h0.3l0,0h0.1v0.1c0.1,0,0.2,0,0.4,0l0,0l0.1,0.1c0.1,0,0.1,0,0.2,0c0.1,0,0.1,0,0.2,0v0.1h0.1l0,0H12
		v0.1h0.1l0,0h0.4l0.1,0.1H13v-0.2h-0.1v-0.2h-0.1V22c-0.1,0,0,0-0.1,0l0,0v-0.2l-0.1-0.1v-0.2l0,0l0,0h-0.2l0,0h-0.1l0,0h-0.4v0.1
		c-0.3,0-0.5,0-0.8,0c-0.1,0-0.2,0.1-0.3,0l0,0h-0.1v-0.1c-0.1,0-0.1,0-0.2,0l0,0l0,0l0,0H10c0-0.1,0-0.1-0.1-0.1H9.8v-0.1H9.7v-0.1
		h0.7v-0.1h0.1l0,0h0.6l0.1-0.1h0.4l0,0h0.1l0,0h0.1l0,0h0.3l0.1,0.1h0.3v0.1c0.1,0,0.2,0,0.3,0v0.1c0.1,0.1,0.5,0,0.6,0
		c0-0.1,0-0.1,0.1-0.1c0-0.1,0-0.1,0.1-0.2l0,0c0-0.1,0.1-0.3,0.1-0.4c-0.2,0-0.4,0-0.6,0l0,0H13l0,0h0l0,0h-0.4l0,0
		c0-0.6,0-0.6-0.2-0.6c0-0.1,0-0.1,0.1-0.2h0.6l0,0h0.1l0,0h0.3l0,0h0.1l0,0c0.1,0,0.2,0,0.2,0l0,0c0.1,0,0.2,0,0.3,0
		c0-0.3,0-0.4-0.1-0.6v-0.6l-0.2-0.2h-2.2l0,0c-0.1,0-0.3,0-0.5,0s-0.4,0-0.5-0.1H8.9c-0.1,0-0.2,0-0.4,0C8.3,18.2,8.2,18.2,8,18.3
		 M1.9,21.8c0,0.2,0,0.4,0,0.6L2,22.5v0.1c0,0,0.1,0,0.1,0.1l0,0v0.4l0,0c0.1,0.1,0.1,0,0.1,0.2c0.2,0,1,0.2,1.3,0.1
		c0,0,0.3-0.1,0.4-0.1l0,0H4l0,0h0.6l0,0h0.1l0,0h0.7l0,0c0.1,0.1,0.1,0.1,0.3,0.1c0,0.1,0,0.2-0.1,0.2c0,0.3,0.2,0.4,0.5,0.4v0.1
		H5.6l0,0H5.4l0,0H4.7l0,0c-0.1,0-0.2,0-0.2,0l-0.1,0.1c0,0.1,0,0.3,0,0.4c0,0.2,0.1,0.1,0.1,0.1h0.1l0.1,0.1h0.2L5,24.9h0.2
		c0,0.1,0.1,0.1,0.1,0.2h0.2c0.1,0.1,0.2,0.2,0.2,0.3h0.7l0.1,0.1h0.3c0,0.1,0.1,0.1,0.1,0.1c0.1,0,0.2,0,0.3,0v0.1
		c0.1,0,0.2,0,0.3,0l0.1,0.1c0.1,0,0.1,0,0.2,0l0,0l0,0v0.1c-0.5,0-0.9,0-1.3-0.1H5.6l0,0H5.3l0,0H5.2l0,0H4.5
		c0,0.1-0.1,0.2-0.1,0.3l0,0c-0.1,0.2,0.2,0.3,0,0.5v0.1H2.3l0,0H2.2l0,0c-0.1,0.1-0.1,0.1-0.2,0.1c0,0.1,0,0.1-0.1,0.1v0.3
		c0,0-0.1,0,0,0.1l0,0v0.1H2C1.9,28,1.8,28,1.8,28.1H1.7c0,0.2,0,0.1,0,0.3h1.2l0,0H3l0,0c0.1,0,0.2,0,0.3,0l0,0h0.1l0,0h0.5h0.7
		l0,0h0.1l0,0c0.2,0,0.4,0,0.6,0v0.1c0.1,0,0,0,0.1,0h0.1v0.1c-0.1,0-0.1,0.1-0.1,0.1H5l0,0H4.9l0,0H4.8l0,0H4.7l0,0H4.4v-0.1
		c-0.1,0-0.2,0-0.3,0l0,0H3.9l0,0H2.7l0,0H2.6v0.1H2.5l0,0l0,0c0,0.2,0.1,0.3,0.2,0.3h0.1l0.1,0.1h0.2c0,0,0,0.1,0.1,0.1
		c0.1,0.1,0.2,0.1,0.3,0c0,0,0,0.1,0.1,0.1h0.3C3.8,29.9,4,29.9,4.1,30l0,0l0,0l0.1,0.1h0.1c0,0.1,0.1,0.1,0.1,0.2h0.2l0.1,0.1h0.1
		c0.2,0,0.3,0,0.4,0.1h1.1c0,0,0.1-0.2,0.2-0.3h0.1l0,0h0.1v-0.1h0.2c0-0.2,0-0.1-0.1-0.2v-0.1c-0.1,0-0.2,0-0.2,0l0,0l0,0l0,0h1.7
		c0.3,0,0.6,0,0.8,0c0-0.2,0.1-0.3,0.1-0.6h0.1l0,0h0.1l0,0c0.1,0,0.2,0.1,0.2,0.1l0,0c0.1,0.1,0.5,0,0.6,0c0,0.1,0,0.1,0,0.2h-0.1
		l0,0c-0.1,0-0.2,0-0.3,0v0.3c0.2,0.1,0.1,0,0.2,0.1l0,0h0.2V30c0.1,0,0.5,0.1,0.7,0l0,0H11v-0.1c0.1,0,0.1,0,0.2,0
		c0.1,0,0.1,0,0.1,0v-0.1c0.1,0,0.1,0,0.2,0.1c-0.1,0.1-0.3,0.2-0.4,0.4H11c0,0.1,0,0,0,0.1l0,0h-0.3l-0.1,0.1H10H9.4l0,0
		c-0.1,0-0.1,0-0.2,0l0,0H9l0,0c-0.1,0-0.2,0-0.3,0l0,0H8.6v-0.1H8.4l0,0c-0.1,0-0.2,0-0.3,0c-0.1,0-0.2,0-0.3-0.1
		c-0.1,0-0.2,0-0.3,0c0,0.2,0.1,0.6,0.2,0.7c0,0.1,0,0.3,0,0.4c-0.1,0.1-0.2,0.1-0.3,0c-0.1,0-0.2,0-0.3,0l0,0H7v0.1H5.1
		c-0.2,0-0.7-0.1-0.8,0l0,0v0.1c0.2,0,0.2,0,0.3,0.1l0,0H5l0,0h0.1v0.1c0.1,0,0.3,0,0.4,0c0,0,0-0.1,0.1,0l0,0h0.1v0.1h0.1l0,0
		c0.1,0,0.1,0,0.2,0h0.1l0,0h0.1V32c0.1,0.1,0.3,0,0.4,0c0,0.1,0,0.1,0,0.2c-0.1,0-0.7,0.1-0.9,0l0,0h0.1l0,0H5.6l0,0H5.2l0,0
		c-0.2,0-0.3,0-0.5,0l0,0H4.6v-0.1H4.4l0,0c-0.1,0-0.2,0-0.2,0c-0.1,0-0.1,0-0.1,0l0,0C4,32,3.9,32,3.8,32c0,0.1-0.1,0.1-0.2,0.1
		c0,0.1,0,0-0.1,0.1c0,0.1,0,0.5,0.1,0.6h0.1C3.6,33,3.6,33,3.8,33v0.1c0.1,0,0.1,0,0.1,0h0.3v0.1h0.1l0,0H5h1v0.1h0.3
		c0,0.1,0.1,0.2,0.1,0.3c0.3,0.1,0,0.1,0.1,0.2l0,0l0,0h0.2l0.1,0.1h0.4V34C7,34,7,34.1,6.9,34.1H6.8v0.1H6.6l0,0H5
		c-0.2,0-0.5,0-0.6,0c-0.1,0.1,0,0.3,0,0.4l-0.1,0.1H4l0,0c-0.3,0.1-0.6,0-0.8,0s-0.3,0-0.5,0l0,0H2.6l0,0H2.4l0,0H2.2l0,0
		c-0.2-0.1-0.5,0-0.7,0v0.1c-0.2,0-0.2,0.2-0.3,0.2v0.5H1.1c0,0.2,0.1,0.2,0.1,0.3h3.1c0.1,0.2,0.2,0.4,0.2,0.7c0.1,0,0.2,0,0.3,0
		l0,0c0.1,0,0.2,0,0.3,0c0.1,0,0.4-0.1,0.7,0l0,0c0.1,0,0.2,0,0.3,0l0.1,0.1c0.1,0,0.2,0,0.3,0v0.1h0.1v0.1c0.1,0.1,0.1,0.1,0.2,0.1
		c0,0.1,0,0.1,0.1,0.1H7l0,0l0.1,0.1v0.1c-0.3,0-0.3,0.2-0.5,0.3c0,0.1,0,0.3,0,0.4h0.1V38H7l0,0h0.5l0,0c0.1,0,0.1,0,0.2,0l0,0h0.6
		v0.1c-0.3,0-1.1,0.1-1.4,0H6.7V38H6.4H6.2c-0.3,0-0.6,0-0.7-0.1H4.2V38H4.1l0,0H4v0.6h0.1l0.1,0.1h0.3l0.1,0.1H5l0.1,0.1h0.4l0,0
		h0.1V39H6v0.1c0.1,0,0.2,0,0.2,0l0,0c0.2,0,0.2,0.1,0.2,0.2h0.2v0.1H7c0,0.1,0,0.1,0.1,0.1c0,0.1,0,0.1,0.1,0.1v0.1l0,0
		c0.1,0.1,0.1,0.1,0.1,0.3c0,1-0.1,1-0.3,1l0,0H6.3v-0.1H6.1l0,0H5.7v-0.1H5.6l0,0H5.2l0,0H5.1v-0.1H4.7l0,0H4.6v-0.1
		c-0.1,0-0.2,0-0.2,0c-0.1,0-0.1,0-0.2,0l0,0c-0.1,0-0.1,0-0.2,0v0.5h0c0,0.2,0,0.3,0,0.5l0,0v0.1h0.1v0.1l0,0
		c0.1,0.1,0.2,0.1,0.3,0c0.1,0,0.2,0,0.3,0l0,0H5v0.1c0.2,0,0.5,0,0.7,0c0,0,0-0.1,0.1,0l0,0h0.1V42h0.3l0,0H7v0.1
		c0.1,0,0.1,0,0.2,0l0.1,0.1h0.1l0.1,0.1h0.1c0.1,0.1,0.2,0.2,0.2,0.3H8v0.3l0,0c-0.1,0-0.1,0-0.2,0s-0.1,0-0.2,0
		c-0.1,0.1-0.3,0.2-0.4,0.2c0,0.2,0,0.6,0,0.7h2.1H10l0,0l0,0l0,0h0.1l0,0h0.2c0,0.1,0,0.2,0,0.3h-0.1c-0.1,0.1-0.1,0.2,0,0.3h0.1
		v0.1h0.1v0.1h0.1v0.1h0.1l0,0H11l0.1,0.1h0.2l0.1,0.1h0.3l0.1,0.1h0.4l0,0h0.1v0.1h0.4l0,0h0.1v0.1H13l0,0c0.1,0,0.2,0,0.3,0l0,0
		c0.1,0,0.2,0.1,0.3,0.1s0.3,0,0.3,0v-0.1l0.1-0.1v-0.2l0,0c0.1-0.1,0.1-0.1,0.1-0.3h0.1V44h-0.1v-0.1H14l-0.1-0.1
		c-0.1,0-0.1,0-0.2,0v-0.1c-0.1,0-0.2,0-0.4,0c0,0,0,0.1-0.1,0l0,0h-0.1v-0.1c-0.1,0-0.3,0-0.4,0c-0.1,0-0.3,0-0.4,0v-0.1
		c-0.1-0.1-0.3,0-0.4,0v-0.1c-0.1,0-0.2,0-0.2,0v-0.1c0.2,0,0.4,0,0.5-0.1l0,0h0.1l0.1-0.1H14V43l0,0c0.1,0,0.1,0,0.2,0l0,0h0.5
		v-0.1h0.1l0,0l0,0c0.1-0.1-0.1-0.1,0.1-0.1c0-0.1,0-0.3,0-0.3h-0.2l0,0c-0.1-0.1-0.1-0.1-0.3-0.1c0-0.1,0,0,0-0.1l0,0
		c-0.1,0-0.2,0-0.3,0v-0.1c-0.2,0-0.3,0-0.5,0V42h-0.1l0,0h-0.6v-0.1c-0.1,0-1-0.1-1.1,0V42c-0.1,0-0.2,0-0.3,0v-0.1
		c-0.2,0-0.3-0.1-0.4-0.1c0-0.1,0-0.1,0-0.1l0,0c0,0,0.3,0,0.4,0H13c0.2,0,0.4,0,0.6,0.1c0.3,0,0.8,0,1,0v-0.2h-0.1
		c0-0.2,0-0.2,0.1-0.3v-0.2l0,0c-0.1-0.1-0.2-0.1-0.4,0c-0.1,0-0.2,0-0.3,0l0,0l0,0h-0.2l0,0h-0.1l0,0h-0.7l0,0c-0.1,0-0.1,0-0.2,0
		l0,0H12l0,0h-0.1l0,0c-0.1-0.1-0.2,0-0.3,0l0,0c-0.1,0-0.2,0-0.3,0l0,0h-0.1V41h-0.6v-0.1h-0.1l0,0H10l-0.1-0.1H9.6
		c0-0.2,0.1-0.1,0.2-0.2c0.3,0,0.7-0.1,0.8,0.1c0.1,0,0.2,0.1,0.3,0.1l0,0c0.1,0,0.2,0,0.3,0v0.1c0.5,0,0.9,0,1.4,0h0.2
		c0.1,0,0,0.1,0,0l0,0h0.1l0,0h1.2h0.6V41H15c0-0.1,0.1-0.2,0-0.4l0,0c0-0.1,0-0.1,0-0.2l0,0v-0.2c0,0,0,0,0-0.1h-0.3V40h-0.1l0,0
		h-0.4l0,0h-1.7l0,0c-0.1,0-0.3-0.1-0.4-0.1h-0.2l0,0h-0.7v-0.2c0.1,0,0.2,0,0.4,0l0,0h0.3c0,0,0,0.1,0.1,0.1h0.3l0,0h0.2l0,0l0,0
		l0,0c0.2-0.1,0.1-0.1,0.2-0.2v-0.1h-0.1c-0.1-0.2,0.1-0.6,0.1-0.7c-0.4-0.1-0.9,0-1.3,0H11c0,0,0,0.1-0.1,0l0,0c-0.1,0,0,0,0,0
		c0.3-0.1,0.5-0.2,0.9-0.2c0-0.1,0-0.1,0.1-0.2H12c0-0.2,0-0.3,0-0.5l0,0c0.1-0.1,0.1-0.1,0.1-0.2c0.2,0,0.3,0,0.4-0.1
		c0.5,0,0.8,0,0.8-0.6c0.1,0,0.2-0.1,0.3-0.2h0.3v0.1c0.1,0,0.2,0,0.4,0l0,0h0.6c0,0,0,0.1,0.1,0.1h0.1l0,0h0.4l0,0
		c0.1,0,0.1,0,0.2,0l0,0h0.4l0.1,0.1c0-0.1,0-0.1,0.1-0.1c0-0.1,0-0.2,0-0.3h-0.1v-0.2l-0.1-0.1v-0.1c-0.1,0-0.1,0-0.2,0l0,0
		c-0.1,0-0.3,0-0.4,0l0,0c-0.1,0-0.2,0-0.2,0c-0.1,0-0.1,0-0.1,0l0,0h-0.1v-0.1H15l0,0h-0.3v-0.1c0,0-0.1,0-0.2,0
		c-0.1,0-0.1,0-0.2,0V36h-0.1l0,0H14l0,0c-0.1-0.1-0.1-0.1-0.2-0.1c0-0.1,0-0.1-0.1-0.1v-0.1h0.1l0,0c0.1,0,0.2,0,0.3,0s0.2,0,0.2,0
		c0-0.1,0.1-0.2,0-0.4c0,0-0.1-0.1,0-0.1l0,0V35l0,0c0.1-0.1,0.2-0.2,0.2-0.3h0.2l0,0h0.1v-0.1h0.3c0.1-0.2,0.3-0.3,0.4-0.5
		c0.2,0,0.3,0,0.4,0l0,0H16l0,0h0.7l0,0h0.1l0,0H17l0,0h0.9l0,0H18l0,0c0.1-0.1,0.1,0,0.2-0.1l0,0c0-0.2-0.1-0.2-0.1-0.2H18
		l-0.1-0.1h-0.3l-0.1-0.1H17v-0.1c-0.2,0-0.5,0-0.7,0h-1.2v-0.1H15l0,0h-0.4c0-0.1-0.1-0.1-0.1-0.1h-0.1L14,31.2v-0.1
		c-0.1,0-0.1-0.1-0.1-0.1v-0.2l-0.1-0.1c-0.1,0-0.3,0.1-0.4,0.1h-0.6l0,0h-0.1v0.1h-0.9l0,0c-0.1,0-0.1-0.1-0.2-0.1
		c0-0.1,0-0.1,0.1-0.2s0.2,0,0.3,0s0.2,0,0.3,0l0,0c0.1-0.1,0.2-0.1,0.4-0.1c0-0.2,0-0.3,0-0.4c0.1-0.1,0.2-0.1,0.2-0.2
		c0.2,0,0.3,0,0.5,0.1v-0.1h0.2l0,0c0.1-0.1,0.1-0.1,0.2-0.1v-0.5c-0.1,0-0.1,0-0.1-0.1c-0.1,0-0.2-0.1-0.4,0l0,0H13l0,0h-0.7l0,0
		c-0.1,0-0.2,0-0.3,0v-0.4h0.2l0,0h0.1l0,0l0,0c0.2,0,0.7,0,0.8-0.1h1.4c0.2,0,0.6,0,0.7,0V28l-0.1-0.1c0-0.2,0-0.4,0-0.6l0,0
		c0-0.2,0-0.2-0.1-0.3h-0.5l0,0h-0.1l0,0h-0.1l0,0h-0.1l0,0h-1l0,0h-0.1c0,0,0-0.1-0.1-0.1h-0.4l0,0h-0.1l0,0c-0.1,0-0.1,0-0.2,0
		c0-0.1,0-0.1,0.1-0.2l0,0v-0.1h0.1c0-0.1,0-0.2,0-0.3l0.1-0.1c0-0.2,0-0.3-0.1-0.4h-0.1v-0.1h-0.2l0,0h-0.7l0,0h-0.2l0,0h-0.1l0,0
		h-0.7v-0.1h-0.1l0,0H10l-0.1-0.1H9.6l0,0c-0.1-0.1-0.1-0.1-0.3-0.1v-0.1c0.1,0,0.1,0,0.2,0l0,0h0.8l0,0h0.1l0,0h0.2l0,0
		c0.2,0,0.3,0,0.4-0.1v-0.4c0.1,0,0,0,0.1,0l0,0v-0.2l0,0c0-0.1,0-0.1,0-0.2l0,0l0,0h-0.2v-0.1c-0.1-0.1-0.2-0.1-0.4-0.1
		c0-0.1,0,0,0-0.1l0,0h-0.3L10.1,24H9.9l0,0H9.8l0,0H9.6l0,0H8.9l0,0H8.8v-0.1H8.1v-0.1H7.9l0,0c-0.1,0-0.3,0-0.4,0
		c0,0-0.1,0.1-0.1,0l0,0H7.3v-0.1c-0.2,0-0.3,0-0.5,0l0,0l0,0l0,0H6.5l0,0H6.4l0,0H6.3l0,0H5.7v-0.1H5.5l0,0H4.8v-0.1H4.6l0,0H3.8
		l0,0H3.7l0,0H3.4l0,0c-0.2,0-0.6,0-0.9,0C2.3,21.7,2.1,21.7,1.9,21.8 M6.8,23.8v-0.1H7l0,0h0.9l0,0h0.2c0.3,0.1,0.6,0.1,1,0.1
		c0,0.1,0,0,0,0.1c-0.1,0-0.1,0-0.2,0c-0.1,0-0.2,0-0.3,0l0,0H8.5l0,0H7.3v-0.1H7.1C7,23.9,7,23.9,6.8,23.8 M9.1,25.4L9.1,25.4
		c0.1,0,0.2,0,0.2,0v0.1h0.1l0,0h0.4c0,0,0,0.1,0.1,0.1H10l0,0h0.4l0.1,0.1h0.2v0.1l0,0l0,0l0,0C10.6,25.9,10.2,26,10,26l0,0l0,0
		l0,0H9.5l0,0c-0.1-0.1-0.1-0.1-0.3-0.1v-0.1c-0.1,0-0.1,0-0.1-0.1l0,0C9,25.4,9,25.4,9.1,25.4 M11.7,26.8
		C11.6,26.7,11.7,26.8,11.7,26.8c0-0.1,0-0.1,0-0.1l0,0c0.2,0,0.3,0,0.4,0v0.1h-0.2l0,0H11.7L11.7,26.8z M12,27.1V27
		c0.1,0,0.2,0,0.3,0v0.2h-0.1C12.1,27.2,12,27.1,12,27.1 M10.3,31.8c0.2,0,0.3,0,0.5,0l0,0H11V32h-0.3l0,0h-0.1l0,0h-0.1
		C10.4,31.9,10.3,31.9,10.3,31.8 M12.2,32c0.2,0,0.5-0.1,0.7-0.1l0,0c0.2,0,0.4,0,0.6,0V32h-0.1c0,0.1,0,0,0,0.1l0,0
		c-0.1,0-0.1,0-0.2,0l0,0c-0.2,0-0.2,0-0.3,0.1c-0.3,0-0.2-0.1-0.3-0.1h-0.2l0,0l0,0L12.2,32L12.2,32L12.2,32z M7.6,36.1
		c-0.1,0-0.1,0-0.2,0c0-0.1,0,0,0-0.1l0,0L7.6,36.1l-0.1-0.2h0.1l0,0h0.2l0.1-0.1h0.2c0,0,0,0,0.1,0v0.1C8,36,8.1,36,8,36.1v0.1
		c0.1,0.1,0.2,0.1,0.4,0.2v0.1c-0.2,0-0.3,0-0.5,0l0,0c-0.1,0-0.1,0-0.2,0l0,0L7.6,36.1L7.6,36.1z M8.5,37.6c0.1,0,0.1,0,0.2-0.1
		l0,0h0.1l0.1-0.1H9c0.2,0,0.2-0.1,0.3-0.1H10l0,0c0.1,0.1,0.1,0.1,0.2,0.1c0,0.1,0,0,0,0.1s0,0.2,0,0.3L8.5,37.6L8.5,37.6z
		 M15.3,24.7L15.3,24.7L15.3,24.7L15.3,24.7c-0.1,0.1-0.1,0.1-0.2,0.1c-0.1,0-0.1,0-0.2,0v0.1h-0.6h-0.7l0,0c-0.1,0.1,0,0.1-0.2,0.1
		v0.6c0,0-0.1,0,0,0.1l0,0v0.2h1.7l0,0h0.2l0,0h0.1v-0.1h0.4v-0.1c0.1,0,0.2,0,0.2,0l0,0c0.1-0.1,0-0.1,0.2-0.1c0-0.2,0-0.2,0.1-0.3
		v-0.2c-0.1-0.1-0.5-0.3-0.8-0.3C15.4,24.7,15.4,24.7,15.3,24.7 M5.8,42.1C5.8,42.2,5.8,42.2,5.8,42.1c-0.1,0.2-0.5,0.1-0.6,0.2l0,0
		H5.1l0,0H3.9H3.3v0.1c-0.1,0-0.1,0-0.2,0c0,0.2,0,0.4-0.1,0.5v0.6h0.1v0.1c0.4,0,0.8,0,1.3,0h0.4l0,0H5v-0.1h0.4v-0.1
		c0.2,0,0.2,0,0.3-0.1h0.1l0,0l0,0l0,0l0,0l0.1-0.1V43l0,0c0.1-0.1,0-0.1,0.1-0.2C6,42.5,5.9,42.5,5.8,42.1L5.8,42.1z M8.7,44.3
		L8.7,44.3H8.4l-0.1,0.1H8l-0.1,0.1H7.5v0.1H7.1L7,44.7H6.7c0,0,0,0-0.1,0V45c-0.2,0-0.3,0-0.4,0.1v0.1H6.1l0,0H5.9v0.1
		c-0.1,0-0.1,0-0.1,0H5.6l-0.1,0.1c-0.3,0-0.6,0-0.9,0l0,0H3.3v-0.1H2.9l0,0c-0.2,0-0.7,0-0.8,0l0,0H2l0,0H1.6l-0.1,0.1H1.4
		c-0.1,0.1-0.2,0.2-0.2,0.3H1.1V46l0,0v0.1l0,0c0,0.1,0,0.2,0,0.2c0.3,0,0.4,0.1,0.6,0.2h0.5l0,0c0.1,0,0.1,0,0.2,0l0,0H3v0.1h0.1
		l0,0h0.7l0,0c0.1,0,0.1,0,0.2,0l0,0h0.8c0.1,0,0.1,0,0.2,0l0,0c0.1,0,0.1,0,0.1,0s0,0,0.1,0s0.1,0,0.2,0l0,0h0.3l0,0
		c0.1,0,0.2,0,0.2,0l0,0h0.5l0.1-0.1c0.1,0,0.1,0,0.2,0.1l0,0h0.1l0.1,0.1h0.3l0.1,0.1H8l0,0c0.1,0,0.2,0,0.3,0l0,0h0.1l0,0h1.3l0,0
		h0.8c0,0,0-0.1,0.1,0l0,0h0.1l0,0c0.2,0,0.4,0,0.5,0l0,0V47l0.1-0.1c0.1-0.2-0.1-0.1,0.1-0.3c0-0.1,0-0.2,0-0.3H8.8
		c-0.2,0-0.9,0.1-1,0l0,0V46H7.7c0-0.1,0-0.2,0-0.2h0.1l0,0h0.4v-0.1c0.1,0,0.2,0,0.4,0v-0.1c0.1-0.1,0.2,0,0.3,0v-0.1
		c0.1,0,0.2,0,0.2,0l0.1-0.1c0.1,0,0.2,0,0.2,0c0-0.1,0.1-0.1,0.1-0.2l-0.1-0.1V45H9.3H9.2l0,0c-0.1-0.1-0.1-0.1-0.2-0.1
		c0-0.1,0-0.1-0.1-0.1c0,0,0,0-0.1,0c0,0,0-0.1-0.1-0.1l0,0C8.9,44.2,8.8,44.2,8.7,44.3 M5,48.1L5,48.1L5,48.1L5,48.1
		c-0.2,0.1-0.2,0-0.2,0H4.7c0,0.1,0,0.1-0.1,0.1c0,0.1,0,0,0,0.1c0,0.2,0,0.2,0.1,0.2c0,0.1,0,0.2,0,0.2h0.1c0,0.2,0.2,0.2,0.3,0.3
		v0.1h0.3l0,0h0.1l0,0h1.3l0,0h0.4l0.1,0.1h0.2l0,0h0.1v0.1h0.1l0,0c0.1,0,0.2,0,0.3,0l0,0h0.1v0.1c0.2,0,0.5,0,0.7,0l0.1,0.1H9
		c0.2,0,0.2,0.1,0.3,0.1l0,0l0,0l0,0H9l-0.1,0.1H8.7l-0.1,0.1H8.4v0.1H8.3l0,0l0,0C8.2,50,8.3,50,8.2,50C8,51,8,50.9,7.9,51
		c0,0.2,0,0.2-0.1,0.3v0.6h0.1V52h0.2l0,0h0.1v-0.2l0.1-0.1v-0.2h0.1v-0.1l0.1-0.1v-0.1c0-0.1,0.1-0.1,0.1,0c0.1,0,0.1,0,0.1-0.1
		c0.1,0,0.2,0,0.3,0V51c0.2,0,0.3,0,0.5,0v-0.1h0.1l0,0c0.1,0,0.2,0,0.3,0s0.6,0,0.6,0l0.1,0.1H11l0,0h1.7l0,0c0.1,0,0.1,0,0.1-0.1
		c0,0-0.1,0,0-0.1l0,0c0-0.1,0-0.1,0-0.2c0.2,0,0.2,0,0.3-0.1l0,0h0.1V50c0.1,0,0.1-0.1,0.1-0.1c0-0.2,0-0.2-0.2-0.3l0,0
		c-0.2,0-0.3,0.1-0.5,0.1v0.1h-1l0,0h-0.1l0,0h-0.1l0,0h-0.5l-0.1-0.1h-0.4l-0.1-0.1H10l-0.1-0.1H9.8l0,0H9.7v-0.1H9.3l-0.1-0.1H9.1
		l0,0c-0.1,0-0.2,0-0.2,0c0-0.1-0.1-0.1-0.1-0.2H8.3l0,0H8l0,0H7.8l0,0H7.3l0,0H7.2c0,0,0-0.1-0.1-0.1H6.8l-0.1-0.1H6.3l0,0H6.2
		v-0.1H5.8l0,0c-0.1,0-0.2,0-0.2,0v-0.1H5V48.1z M3.6,49c-0.1,0-0.2,0-0.3,0c0,0.1-0.2,0.3-0.3,0.4v0.2h0.1h0.1l0.1,0.1
		c0.1,0,0.2,0,0.3,0v0.1h0.2c0,0.1,0,0,0,0.1l0,0h0.3L4.2,50c0.1,0.1,0.4,0,0.4,0v-0.1H5c0-0.1,0,0,0,0c0.1,0,0,0.1,0-0.1
		c-0.2-0.1-0.2-0.2-0.4-0.2c0-0.2,0-0.2-0.1-0.3c0-0.2-0.2-0.2-0.2-0.3C4,49,3.8,49,3.6,49L3.6,49z M16.6,50.9L16.6,50.9h-0.3V51
		h-0.1l0,0h-0.3l0,0c-0.1,0.1-0.1,0.1-0.3,0.1v0.1c-0.2,0-0.3,0-0.5,0v0.1h-0.5l0,0h-0.1l0,0h-0.2l0,0c-0.2,0-0.4-0.1-0.5-0.3h-0.5
		l-0.1,0.1H13l0,0h-0.1v0.1h-0.1l0,0c-0.1,0.1,0,0,0,0.1c-0.2,0-0.1,0.1-0.3,0.1c0,0.1,0,0.1,0,0.2l-0.1,0.1c0,0.1,0,0.2,0,0.2h0.4
		l0,0h0.1l0,0H13l0,0c0.4,0,0.8,0,1.2,0l0,0H14l0,0h0.8l0,0h0.1v-0.1h0.8l0,0h0.1l0,0H16l0,0c0.1,0,0.3,0,0.5,0s0.5,0,0.6,0
		c0.1-0.1,0,0,0-0.1c-0.2-0.1-0.4-0.3-0.6-0.4c0.1-0.1,0.3-0.2,0.4-0.2V51c0.2,0,0.3,0,0.4-0.1s0,0,0.1-0.1c-0.1,0-0.1-0.1-0.1-0.1
		c-0.1,0-0.3-0.1-0.5-0.1C16.7,50.9,16.7,50.9,16.6,50.9 M11.5,53.5L11.5,53.5L11.5,53.5L11.5,53.5l-0.3,0.1l0,0h-0.7l0,0h-0.1l0,0
		h-0.2l0,0H9.1l0,0c-0.1,0-0.2,0-0.2,0l0,0H8.7c0,0,0,0.1-0.1,0.1v0.7l0.1,0.1h0.5c0,0,0,0.1,0.1,0c0-0.1,0.1-0.1,0.1-0.2h0.4
		c0-0.1,0,0,0.1-0.1s0.4,0,0.6,0h1.7v-0.1c0.2,0,0.2,0,0.3-0.1c0.1,0,0.1,0,0.1-0.1c0.1,0,0.1,0,0.1-0.1c0.1,0,0.1,0,0.1-0.1l0,0
		v-0.1h-0.4l0,0h-0.2l0,0h-0.7V53.5z"/>
</g>
</svg>
